# xmcd
# 
# Track frame offsets:
#     150
#     21925
#     35255
#     49117
#     68445
#     88897
#     102545
#     122612
#     135800
#     157777
#     168487
#     180582
#     190862
# 
# Disc length: 2683
# 
# Revision: 11
# Processed by: cddbd v1.5.2PL0 Copyright (c) Steve Scherf et al.
# Submitted via: fre:ac v1.0.17
# 
DISCID=9d0a790d
DTITLE=Muddy Waters - At Newport 1960
DYEAR=1960
DGENRE=Blues
TTITLE0=I Got My Brand on You
TTITLE1=(I'm Your) Hoochie Coochie Man
TTITLE2=Baby, Please Don't Go
TTITLE3=Soon Forgotten
TTITLE4=Tiger in Your Tank
TTITLE5=I Feel So Good
TTITLE6=I've Got My Mojo Working Pt.1
TTITLE7=I've Got My Mojo Working Pt.2
TTITLE8=Goodbye Newport Blues
TTITLE9=I Got My Bran on You (Single Version) (mono)
TTITLE10=Soon Forgotten (mono)
TTITLE11=Tiger in Your Tank (Single Version) (mono)
TTITLE12=Meanest Woman (mono)
EXTD=
EXTT0=
EXTT1=
EXTT2=
EXTT3=
EXTT4=
EXTT5=
EXTT6=
EXTT7=
EXTT8=
EXTT9=
EXTT10=
EXTT11=
EXTT12=
PLAYORDER=
